<?xml version="1.0" encoding="UTF-8" standalone="no"?>
<!-- Created with Inkscape (http://www.inkscape.org/) -->

<svg
   xmlns:dc="http://purl.org/dc/elements/1.1/"
   xmlns:cc="http://creativecommons.org/ns#"
   xmlns:rdf="http://www.w3.org/1999/02/22-rdf-syntax-ns#"
   xmlns:svg="http://www.w3.org/2000/svg"
   xmlns="http://www.w3.org/2000/svg"
   xmlns:sodipodi="http://sodipodi.sourceforge.net/DTD/sodipodi-0.dtd"
   xmlns:inkscape="http://www.inkscape.org/namespaces/inkscape"
   width="256"
   height="256"
   id="svg2"
   version="1.1"
   inkscape:version="0.48.4 r9939"
   sodipodi:docname="Icon.svg"
   inkscape:export-filename="C:\Users\Richard\Documents\GitHub\ChocoPM\Resources\Logo\Icon.png"
   inkscape:export-xdpi="48"
   inkscape:export-ydpi="48">
  <title
     id="title3831">ChocoPM Icon</title>
  <defs
     id="defs4" />
  <sodipodi:namedview
     id="base"
     pagecolor="#ffffff"
     bordercolor="#666666"
     borderopacity="1.0"
     inkscape:pageopacity="0.0"
     inkscape:pageshadow="2"
     inkscape:zoom="1.4"
     inkscape:cx="-149.77766"
     inkscape:cy="63.383051"
     inkscape:document-units="px"
     inkscape:current-layer="layer1"
     showgrid="false"
     inkscape:window-width="1920"
     inkscape:window-height="1017"
     inkscape:window-x="-8"
     inkscape:window-y="-8"
     inkscape:window-maximized="1" />
  <metadata
     id="metadata7">
    <rdf:RDF>
      <cc:Work
         rdf:about="">
        <dc:format>image/svg+xml</dc:format>
        <dc:type
           rdf:resource="http://purl.org/dc/dcmitype/StillImage" />
        <dc:title>ChocoPM Icon</dc:title>
      </cc:Work>
    </rdf:RDF>
  </metadata>
  <g
     inkscape:label="Layer 1"
     inkscape:groupmode="layer"
     id="layer1"
     transform="translate(0,-796.36218)">
    <g
       id="g3822"
       transform="matrix(2.0268753,0,0,2.0268843,8.1108967,-1093.6884)">
      <g
         id="g3815">
        <g
           id="g3795">
          <rect
             y="967.36218"
             x="20"
             height="80"
             width="80"
             id="rect2985"
             style="opacity:0.98999999;fill:#7e4700;fill-opacity:1;stroke:none" />
          <path
             transform="translate(0,932.36218)"
             inkscape:connector-curvature="0"
             id="path3793"
             d="m 20.213691,98.456805 c 0,-14.093523 0.04951,-16.29673 0.363489,-16.176245 3.997827,1.53411 9.22799,2.723583 14.136923,3.215098 3.70263,0.370732 11.947142,0.179118 16.182972,-0.376115 14.592131,-1.912737 30.0865,-7.893988 45.898806,-17.718199 l 2.967323,-1.843602 0,24.607396 0,24.607392 -39.774756,0 -39.774757,0 0,-16.315725 z"
             style="opacity:0.98999999;fill:#4e2c00;fill-opacity:1;stroke:none" />
        </g>
        <path
           sodipodi:type="arc"
           style="fill:#ffffff;fill-opacity:1;stroke:none"
           id="path3765"
           sodipodi:cx="39.522217"
           sodipodi:cy="39.314064"
           sodipodi:rx="10.985409"
           sodipodi:ry="10.480332"
           d="m 50.507626,39.314064 c 0,5.788128 -4.918335,10.480332 -10.985409,10.480332 -6.067074,0 -10.985409,-4.692204 -10.985409,-10.480332 0,-5.788128 4.918335,-10.480332 10.985409,-10.480332 6.067074,0 10.985409,4.692204 10.985409,10.480332 z"
           transform="matrix(0.77375364,0,0,0.77375364,6.9195411,954.83358)" />
        <path
           sodipodi:type="arc"
           style="fill:#ffffff;fill-opacity:1;stroke:none"
           id="path3767"
           sodipodi:cx="85.610428"
           sodipodi:cy="87.675117"
           sodipodi:rx="19.445436"
           sodipodi:ry="19.950512"
           d="m 105.05586,87.675117 c 0,11.018364 -8.706014,19.950513 -19.445432,19.950513 -10.739418,0 -19.445437,-8.932149 -19.445437,-19.950513 0,-11.018363 8.706019,-19.950511 19.445437,-19.950511 10.739418,0 19.445432,8.932148 19.445432,19.950511 z"
           transform="matrix(1.0310703,0,0,1.0024805,-18.220758,931.46959)" />
      </g>
      <rect
         ry="0"
         transform="matrix(0.93969262,-0.34202014,0.34202014,0.93969262,0,0)"
         y="911.20862"
         x="-312.28479"
         height="5"
         width="79.747459"
         id="rect3771"
         style="opacity:0.98999999;fill:#7e4700;fill-opacity:1;stroke:none" />
    </g>
  </g>
</svg>
